<svg xmlns="http://www.w3.org/2000/svg"><symbol id="inline-audio" viewBox="-2 -2 30 30"><path d="M9 18H2V6h7v12zm2-12v12l11 6V0L11 6z"/></symbol><symbol id="inline-camera" viewBox="-2 -2 30 30"><path d="M16 16a2 2 0 0 1-2 2H2a2 2 0 0 1-2-2V8a2 2 0 0 1 2-2h12a2 2 0 0 1 2 2v8zm8-10l-6 4.223v3.554L24 18V6z"/></symbol><symbol id="inline-insta-logo" viewBox="-2 -2 25 25"><path d="M18 0H2a2 2 0 0 0-2 2v16a2 2 0 0 0 2 2h16a2 2 0 0 0 2-2V2a2 2 0 0 0-2-2zm-8 6a4 4 0 1 1-4 4 4 4 0 0 1 4-4zM2.5 18a.47.47 0 0 1-.5-.5V9h2.1a3.4 3.4 0 0 0-.1 1 6 6 0 1 0 12 0 3.4 3.4 0 0 0-.1-1H18v8.5a.47.47 0 0 1-.5.5zM18 4.5a.47.47 0 0 1-.5.5h-2a.47.47 0 0 1-.5-.5v-2a.47.47 0 0 1 .5-.5h2a.47.47 0 0 1 .5.5z"/></symbol><symbol id="inline-text-logo" viewBox="0 0 2849.4 401.9"><path d="M27.5 292.6c-.1 25-.1 49.9 0 74.9 16 .1 32 .1 48 0v-72.9c-16-.6-32.1 0-48-2zm766.6 55.5c-5.5 5.3-9.1 12.3-12 19.3 4-.1 8.1-.1 12.1 0-.2-6.4 0-12.9-.1-19.3zm935.6-312.5c-.2 1.9-.7 5.6-1 7.4-.3-2.3-2.3-5.3-1.8-7.3-24.8-.3-49.6-.1-74.4-.1.1 21.3-.5 42.7.2 64-.2 6.7 2.7 12.7 4.2 19.1-1.8-2.9-3.2-6.1-4.4-9.3.1 59.3-.2 118.6.1 177.8 8.9 2 17.4 6.2 24.1 12.5-8.6-2.6-16.1-7.7-24.2-11.3-.1 27.4 0 54.7 0 82.1 12.9 0 25.7 0 38.6-.1-.1-3.4.1-6.9.6-10.3.5 2.6 1.6 7.7 2.1 10.3 3.8 0 7.8 0 11.7.1 0-19.4.4-38.8-.4-58.1-6.1-1.5-11.5-4.8-15.9-9.1 5.7 1.4 11 3.7 16.3 6.1-.1-13.6-.1-27.3 0-40.9 22.6-.1 45.3 0 68 0v-48c-22.7-.1-45.3 0-68 0-.1-45.7 0-91.3 0-137 29-.1 58 0 87 0v-48c-21 .1-41.9.1-62.8.1zm-66.8 322.8c2.2 1.5 4.2 3.3 6 5.3-2.3-1.3-4.4-3.1-6-5.3zm21.2-57.4c.8-1.2 3.2 0 2.5 1.4-.8 1.2-3.3 0-2.5-1.4zm3.8 29.3c-2.6-4.7-4.2-10-4-15.4 2.7 4.7 4.1 10 4 15.4zm-18.6-193.1c2.9-5.1 5.9-10.3 10.4-14.3-.8 6.1-4.7 11.8-10.4 14.3zm13 179.2c-1.7.5-2.2 0-1.7-1.7 1.6-.5 2.2.1 1.7 1.7zm.9 41c.8-.3 2.5-.8 3.4-1.1.1 2.6.2 5.3.4 8-1.4-2.3-2.7-4.5-3.8-6.9zm4.7-17.7c1.4-.5 1.9 0 1.5 1.4-1.5.5-2 0-1.5-1.4zm1.6 2.5c1.4 5.2 2.5 10.5 2.5 16-2.3-5.1-3.3-10.6-2.5-16zm-.9-5.5c-1.3-.7-1.3-1.4 0-2 1.3.7 1.3 1.3 0 2zm40.1-292.6c1.5 0 1.5 2.8 0 2.8-1.5-.1-1.6-2.8 0-2.8zm2.6 36.1c-1.4.4-1.9-.1-1.5-1.4 1.4-.5 1.9 0 1.5 1.4zm-1.1-5.1c-1.8-8.8-2-17.8-1.8-26.8 2.4 8.7 4.9 17.9 1.8 26.8zm3.9-13c-1.4 1.1-2.8-1.3-1.4-2.2 1.3-1.1 2.7 1.3 1.4 2.2zm16.3-2.5c.4-1.7.8-3.4 1.3-5.1.9 1.7 1.9 3.3 3 5-1.5 0-2.9 0-4.3.1zm1054.1-24c-15.7-.1-31.3-.1-47 0-.2 16.7-.3 33.3.7 49.9-2 50.1.4 100.3-1.3 150.5-18.6-66.6-35.8-133.6-53.6-200.4-22.3-.1-44.6-.1-66.8 0-.1 111.6 0 223.3 0 334.9 16 .1 32 .1 48 0 .3-81.1-.5-162.3.4-243.4 22.5 80.9 43.4 162.3 65.5 243.4h54.1V35.6zm-119.3 28.8c-1-2-1.5-4.2-1.6-6.4.9 2 1.3 4.2 1.6 6.4zm-4.6-.7c1.3-.6 2.2 1.8.7 2.2-1.4.5-2.2-1.8-.7-2.2zm4.8 9.8c-.1 1-.2 2.9-.2 3.9-2.3-1.3-4.4-2.6-6.5-4.1 2.3-.1 4.5 0 6.7.2zm1.5 19.2l-3.3 4.2c0-1.3.1-2.6.3-3.8.7-.1 2.3-.3 3-.4zm-11.2-37.8c1.3-1.1 2.8 1.3 1.4 2.2-1.4 1-2.9-1.3-1.4-2.2zm1.8 38.4c-.2-2.2-.3-4.4-.2-6.6.6 2.2.8 4.5.2 6.6zm-4.9-28.2c1.3-1 2.8 1.2 1.6 2.2-1.4 1-3-1.3-1.6-2.2zm-5.5-7.1c1.2-1 2.9 1.1 1.8 2.2-1.3 1-3-1.2-1.8-2.2zm-3.8 27.8c1.1-1.1 3.1.8 2 2-1.2 1-3-.9-2-2zm.3 156.2c-.1-.3-.4-1-.6-1.3 1.4-2.2 3.1 1.9.6 1.3zm-3-179.3c1.3.7 1.2 1.3 0 2-1.4-.6-1.4-1.3 0-2zm-3.9 12.1c.7-.1 2.2-.2 2.9-.2-.2.6-.5 1.9-.7 2.5-1.2.2-2.3.5-3.4.7.3-1 .8-2.1 1.2-3zm-2.2 171.8h-5v-3h5v3zm1.1-141.8c1.6-.5 2.1 0 1.7 1.7-1.7.4-2.2-.1-1.7-1.7zm2 133.9c-1.3-.7-1.3-1.4 0-2 1.3.7 1.3 1.3 0 2zm1.4-90.6c-1.8.7-2.1-2.2-.4-2.4 1.7-.6 1.9 2.1.4 2.4zm-.4-16.4c-2-.5-.8-3.5 1-2.9 2 .5.8 3.6-1 2.9zm3.7 158.6c-1.6.5-2.3-2.2-.7-2.5 1.6-.5 2.3 2.2.7 2.5zm3-25.9c-1.7.5-2.2 0-1.7-1.7 1.6-.5 2.2.1 1.7 1.7zm1.5-85.5c-.8 1.3-3.3.2-2.5-1.2.7-1.2 3.3-.3 2.5 1.2zm2.1-95.7c-.9 1.4-3.3-.1-2.2-1.4.9-1.4 3.3 0 2.2 1.4zm1.4-19.8c-1.7.5-2.2 0-1.7-1.7 1.6-.5 2.2.1 1.7 1.7zm2.5 34.4c1.5-.8 3.4 2 1.5 2.7-1.6.7-3.5-1.9-1.5-2.7zm2.5 15.4c-1.5.4-1.9-.1-1.5-1.4 1.4-.5 1.9 0 1.5 1.4zm2.6-14.2c-1.3 1.3-3.4-.8-2-2 1.1-1.3 3.3.8 2 2zm1.7-20.3c-1.4-.7-1.3-1.4 0-2 1.3.7 1.3 1.3 0 2zm3.1 26.3c1.3-1.4 3.6.8 2.2 2.2-1.4 1.4-3.7-.9-2.2-2.2zm5.3 14.3c-1.3 1.4-3.7-.8-2.3-2.1 1.2-1.4 3.6.7 2.3 2.1zm1.8-32c.9 1.8 1.7 3.7 2.6 5.5-1-.5-2-.9-2.9-1.3 0-1.4.1-2.8.3-4.2zm.8 13.8c1.3-1.1 2.8 1.2 1.6 2.2-1.4 1-3-1.3-1.6-2.2zm.2 5.8c1.3-1.1 2.8 1.2 1.6 2.1-1.4 1.1-3-1.2-1.6-2.1zm3.5 19.5c-1.7.5-2.2-.1-1.7-1.7 1.6-.5 2.2.1 1.7 1.7zm-2.6-11.8c-.8-1.6 1.3-3 2.8-2.7 1.7 1.2-1.5 3.7-2.8 2.7zm6.7-11.5c-1.8-.1-1.5-3.1.2-3 1.7.1 1.4 3-.2 3zm1.4-14.7c-.9 1.2-3-.1-2-1.3.7-1.1 2.8.1 2 1.3zm-2.7-16c.5-1.4 1.1-2.7 1.8-4.1.4 1.5 1 2.9 1.5 4.4-.8 0-2.4-.2-3.3-.3zm6.9 54.1c-1 1.3-3.3-.3-2.1-1.6.8-1.3 3 .3 2.1 1.6zm2.8-11.3c-1.6 1-3.4-1.6-2-2.8 1.4-1 3.1 1.6 2 2.8zm1.8 35.5c-1.3-.7-1.3-1.4 0-2 1.3.7 1.3 1.3 0 2zm14.3 47.6c-1.8-3.7-2.6-7.7-1.2-11.6 2.5 3.4 4.1 7.8 1.2 11.6zm3.3-32.3c1.5-1 3.3 1.6 2 2.8-1.6 1-3.3-1.7-2-2.8zm4.1 68c-1.1-1.3-2.2-2.7-3.2-4.1 1.1-.6 2.2-1.1 3.4-1.6-.1 1.9-.2 3.8-.2 5.7zm5.4 6.1c1.1-.9 2.5 1 1.5 1.9-1.2 1-2.7-1-1.5-1.9zm3.6 12.3c-1.7.5-2.2 0-1.7-1.7 1.6-.5 2.2.1 1.7 1.7zm8 9c-1.7.5-2.2 0-1.7-1.7 1.6-.5 2.2.1 1.7 1.7zm2.3-30.7c-1.4-.7-1.3-1.4 0-2 1.3.7 1.3 1.3 0 2zm33.1-173.2c1.5-.7 2.4 1.9.8 2.4-1.6.6-2.5-2-.8-2.4zm9.1 25.7c-9.4 4.1-19.8 3.4-29.7 2.8 9.4-3.7 19.7-3.2 29.7-2.8zm-14.2 10.5c-1.3-.7-1.3-1.4 0-2 1.3.7 1.3 1.3 0 2zm-17.5 213.9c-.3-1.4-.6-2.8-.8-4.2 1.5.9 3 1.7 4.6 2.6-1.3.6-2.6 1.1-3.8 1.6zm6.7-6.2c-2.5-2.5-4.1-5.6-4.9-9 2.2 1.4 4.5 2.8 6.8 4.2-.6 1.6-1.4 3.2-1.9 4.8zm2.8-62.7c-1.4-.7-1.3-1.4 0-2 1.3.7 1.3 1.3 0 2zm2-138c-1.3-.7-1.3-1.4 0-2 1.3.7 1.3 1.3 0 2zm3.3 253.6c-1.3.9-2.6-1.3-1.3-2 1.2-.9 2.4 1.2 1.3 2zm-2.2-62c1.8-1.7 3.9-2.5 5.7-.3l-5.7.3zm5.3-114.4c.8-1.2 2.8.3 1.9 1.5-.9 1-2.9-.4-1.9-1.5zm3.5 170c-1.6.6-2.5-1.9-.8-2.4 1.5-.7 2.4 1.9.8 2.4zm3.8-245.7c-1.5.4-1.9-.1-1.5-1.5 1.4-.4 1.9.1 1.5 1.5zm1.3 22.8c-.1-.3-.4-1-.6-1.3 1.4-2.2 3.1 1.9.6 1.3zm4.1 3.1c1.1-.9 2.5 1 1.5 1.9-1.2 1-2.7-1-1.5-1.9zm3.8 198.4c-1.1.4-2.2.8-3.2 1.3.3-1.8.7-3.6 1-5.4.7.2 2.1.6 2.9.7-.3 1.1-.6 2.3-.7 3.4zm5.4-244.4c-.9 1.2-2.9-.2-1.9-1.3.8-1.3 2.9 0 1.9 1.3zm-432.4-46.5c-.1 111.6 0 223.3 0 334.9 17.6.1 35.3.1 53 0v-335c-17.7 0-35.4.1-53 .1zm23.5 42.3c.8-1.2 2.8.3 1.9 1.5-.9 1-2.9-.4-1.9-1.5zm-1.7 28.5c-1.7.5-2.2 0-1.7-1.7 1.6-.5 2.2.1 1.7 1.7zm0 173c-1.7.5-2.2 0-1.7-1.7 1.6-.5 2.2.1 1.7 1.7zm-1.9-184.2c1.8.5 3.6 1.1 5.4 1.7-1.1.5-2.2 1.1-3.3 1.6-.7-1-1.4-2.2-2.1-3.3zm-1.5-4.9c1.1-1.1 3.5.5 2.8 1.9-1.1 1.1-3.6-.5-2.8-1.9zm-7.4 212.2c-1.7 0-1.6-2.7.1-2.7 1.6 0 1.5 2.8-.1 2.7zm5.1-55.7c1.6-.5 2.1 0 1.7 1.7-1.7.4-2.2-.1-1.7-1.7zm4.1 112.6c-1.2 1.1-3.2-.8-2-2 1-1 2.9.9 2 2zm1.7-13.3c-1.4 1-2.9-1.2-1.6-2.2 1.3-1.1 2.8 1.2 1.6 2.2zm1.2-149.3c1.6-.5 2.1 0 1.7 1.7-1.7.4-2.2-.1-1.7-1.7zm1.7 66.5c-1.6.5-2.3-2.2-.7-2.5 1.6-.5 2.3 2.2.7 2.5zm4.5-201.6c.8-1.2 2.9.1 1.8 1.3-.8 1.2-2.9-.1-1.8-1.3zm.1 161c1.4-.5 1.8 0 1.4 1.4-1.4.5-1.9 0-1.4-1.4zm-.2-130.6c1.5 0 1.5 2.8 0 2.8-1.5-.1-1.6-2.8 0-2.8zm-1.1-21.1c-.1-.3-.4-1-.6-1.3 1.4-2.2 3.1 1.9.6 1.3zm1.7 268.4c-1.7.5-2.2 0-1.7-1.7 1.6-.5 2.2.1 1.7 1.7zm-.6-86.4c.7 0 2 .1 2.7.1-.4 1.6-.8 3.2-1.1 4.8-.7-1.6-1.2-3.2-1.6-4.9zm4.4 64.1c-1-1.3-1.9-2.6-2.7-3.9.7-.1 2.1-.3 2.7-.4v4.3zm.8-158.4c1.4-.4 1.8 0 1.5 1.4-1.5.5-2 0-1.5-1.4zm3.4 154.7c-1.7.5-2.2 0-1.7-1.7 1.6-.5 2.2.1 1.7 1.7zm.8-163.4c-.7.2-2 .6-2.6.8-.1-1.5-.1-2.9 0-4.3.7.2 2 .6 2.6.8v2.7zM727.5 121.6c-.2-20.8-2-43.2-14.1-60.8-2.9-4.7-7.5-8.1-12.8-9.6-2.6-.4-2.1-3.2-2.3-5.2-12.4-8.9-27.7-13-42.8-13.2-28.3-.5-56.5-.1-84.7-.2.3 8.2-.2 16.4-.2 24.6 5.1.5 10.4.9 15.5 1.8-5 .9-10.1.2-15.1-.1 2.1.8 4.2 1.5 6.4 2.2 0 .6.1 1.9.2 2.5-2.3-.6-4.6-1.2-6.9-1.9-.1 101.9-.1 203.8-.1 305.7 17.6.1 35.3.1 53 0 .1-21.7 0-43.3 0-64.9 22.2-.1 47.1 1.6 67.4-8.7-3.5-4-5.5-9.3-5.9-14.6 3.1 4.3 5.2 9.3 5.9 14.6 3-1.5 5.8-3.3 8.6-5.3 8.4-6.7 15.5-15.3 19.8-25.2 5.4-11.5 6.9-24.4 8-36.9.4-34.8-.1-69.8.1-104.8zM574.9 42.2c-1.3 1.5-3.6-.8-2.2-2.1 1.3-1.5 3.6.7 2.2 2.1zm8.7 8.5c-1.3-.7-1.3-1.4 0-2 1.3.7 1.3 1.3 0 2zm26.7 13.7l.3 3.9c-1.8-.9-3.5-1.7-5.3-2.5 1.7-.4 3.3-.9 5-1.4zm-1.7 24.3c-1.3-.7-1.3-1.4 0-2 1.3.7 1.3 1.3 0 2zm-3.7-6.9c-3-1-6-2.1-8.9-3.5 1.5-.6 2.9-1.1 4.4-1.6l4.5 5.1zM596 55.1c1.1-.2 2.3-.4 3.4-.6 0 .8.1 2.4.1 3.2-1.4 0-2.8-.1-4.2-.1.2-.7.5-1.9.7-2.5zm4.2 12.3c-.1 1-.1 2-.2 3-.8.4-1.5.8-2.3 1.2.6 2 .4 4.1-.4 6-.8-2.6-1.5-5.2-2.2-7.8 1.7-.9 3.4-1.6 5.1-2.4zm-10.6 62.3c1.3.7 1.3 1.3 0 2-1.3-.6-1.3-1.3 0-2zm-3 189.1c1.6-.5 2.2 0 1.7 1.7-1.6.4-2.2-.1-1.7-1.7zm-.7-31.8c1.2-1.3 3.4.8 2 2-1.2 1.3-3.3-.8-2-2zm2.7-136.3c1.3.7 1.3 1.3 0 2-1.3-.6-1.3-1.3 0-2zm-1.1-10.2c-1.7 0-1.5-2.7.1-2.7 1.7 0 1.5 2.8-.1 2.7zM584.9 90c-.8-1 .5-2.4 1.7-2.1 1.9.7-.4 3.5-1.7 2.1zm1.3-26.9c.1.9.3 2.7.3 3.6-1.6-.2-3.1-.4-4.6-.6 1.4-1 2.9-2 4.3-3zm-2.6 4.4c-.5 1-1 2.1-1.5 3.2-3.4-.6-6.9-1.3-10.2-2.3 2.9-.2 8.7-.7 11.7-.9zm-5.7 29.9c-1.7 0-3.4-.1-5.1-.1.1-.7.2-2 .3-2.7 1.6.9 3.2 1.8 4.8 2.8zm6.5 234.3c-4.4-4.8-9.7-9-12.5-15 7.6 6.2 13.6 14 20.6 20.9 1.6 1.7 3 3.5 4.3 5.5-4.9-2.8-8.5-7.4-12.4-11.4zm12.5-186.5c-.9 1.4-3.2-.1-2.1-1.4.9-1.4 3.2 0 2.1 1.4zm2.7-28.5c1.3.7 1.3 1.3 0 2-1.3-.6-1.3-1.3 0-2zm2.6 232.3c-1.2-1.9-1.9-4-2.7-6 3.6 2.4 6.6 5.6 9.4 8.9-2.3-.9-4.8-1.4-6.7-2.9zm9.8 6.8c-1.4.7-3.6-1.4-2.8-2.8 1.5-.9 3.7 1.4 2.8 2.8zm.6-294.1c-1.3-.7-1.3-1.4 0-2 1.3.7 1.3 1.3 0 2zm7-1c-1.3-.7-1.3-1.4 0-2 1.3.7 1.3 1.3 0 2zm37.3-12c1.4-.5 1.9 0 1.5 1.4-1.5.5-2 0-1.5-1.4zm-9.3 1.2c1.5 0 1.2 2.4-.2 2.4-1.5 0-1.3-2.5.2-2.4zm1 9c2.2 1.1-1 3.9-2.3 2.1-1-1.3 1.1-2.6 2.3-2.1zm-11.1-6c2 .7-.4 3.5-1.7 2.1-.7-1.1.6-2.5 1.7-2.1zm-12.8 4.8c1.9-.6 2.2 2.4.5 2.7-2 .5-2.3-2.5-.5-2.7zm42.8 224.9c-1.7.5-2.6-2.3-.8-2.8 1.6-.5 2.5 2.4.8 2.8zm7-59c.1 9.7-1.7 20.9-10 27-12.4 7-27.5 2.9-41.1 3.9v-174c12.6.4 25.6-1.6 37.9 2.1 10 4.4 12.8 16.1 12.9 26 .6 38.3.1 76.7.3 115zm5.7-164.5c-.8 1.1-2.9-.1-2-1.3.7-1.3 2.8 0 2 1.3zm3.1 202.8c-1.4.5-2.2-1.8-.7-2.2 1.4-.6 2.2 1.8.7 2.2zm2.6-142.9c-1.2 1-2.5-1.1-1.3-1.9 1.2-.9 2.6 1.1 1.3 1.9zm10-19.7c-.9 1.1-2.9-.3-1.9-1.5.9-1.1 2.8.4 1.9 1.5zm4.4 0c-1.5 1.2-3.1-1.4-1.6-2.4 1.4-1.2 3.1 1.4 1.6 2.4zm1458.1 146.3c-16.7-.1-33.3-.1-50 0-.2 17.6.4 35.3-.2 53-.3 8-2.4 16.7-8.8 22.1-10.2 7.5-25.1 7.1-35.5.5-8.5-6.7-9.8-18.5-9.6-28.5.1-60 0-120 0-180.1-.1-9.6 1.4-20.3 8.7-27.3 7.4-5.8 17.4-7.1 26.3-4.7 10.8 1.4 17.4 12.3 18.6 22.3.9 15.2.2 30.4.4 45.7 16.6.1 33.3.1 50 0-.2-20.3 1.5-40.9-3-60.9-3.7-18-13.8-35.6-30-45-21.5-12.5-48-13.7-71.8-7.9-12.7 3.1-23.7 10.5-33.4 19 6.1 7.6 12.4 15 18.4 22.8 5.4 7.5 15.5 11.7 17.3 21.5-14.2-12.3-23.6-29-36.9-42.2-6.6 9.7-12.2 20.2-14.4 31.8-4.3 16.3-2.8 33.3-3 49.9.1 50 0 100 0 150 .1 20.6 2.9 42.5 15.4 59.6 11.9 17 32.7 25.1 52.7 27.2 19 1 39.1-1 55.8-10.9 13.2-7.5 22.2-20.7 27.2-34.8 9.5-26.7 4.8-55.4 5.8-83.1zm-32.2-129.5c-1.2.9-2.7-1.1-1.5-1.9 1.1-1 2.6 1 1.5 1.9zm5.4-9.2c1.5 0 1.2 2.4-.2 2.4-1.6 0-1.3-2.5.2-2.4zm-5.8-30.6l1.8 5.7c-1.7-1.2-3.3-2.5-4.8-3.9.8-.4 2.2-1.3 3-1.8zm-4.2-5.5c1.6-.5 2.1 0 1.7 1.7-1.7.4-2.2-.1-1.7-1.7zm-101.8 65.6c-1.5.1-3 .2-4.4.3.1-.9.2-2.6.3-3.5 1.4 1 2.7 2.1 4.1 3.2zm-5-14.6c.9-1.5 3.5.2 2.4 1.6-1.1 1.5-3.6-.2-2.4-1.6zm-.8 33.2c.8-1.4 3.5-.1 2.7 1.4-.9 1.4-3.7.2-2.7-1.4zm3.4 123.6c-1.1 1.4-3.1-.6-1.7-1.7 1.2-1.4 3.2.5 1.7 1.7zm2.7-8.3c-1 1.3-3.2-.3-2.1-1.6.9-1.3 3.2.2 2.1 1.6zm20.7-111c1.1-1 3 .8 2 2-1.2 1-3.1-.9-2-2zm.5 143.1c-1.7.5-2.2 0-1.7-1.7 1.6-.5 2.2.1 1.7 1.7zm1 8.8c-1.4.4-1.9-.1-1.5-1.4 1.4-.5 1.9 0 1.5 1.4zm.4 13.7c-1.3-2.1-2.4-4.4-3.3-6.8 1.3 2.2 2.4 4.4 3.3 6.8zm-5.5-71.3c-1.4-.9-2.7-1.9-4.1-2.8l6.6.3c-.8.9-1.7 1.7-2.5 2.5zm-.6 50.3c1.5 0 1.2 2.4-.2 2.4-1.6 0-1.3-2.5.2-2.4zm-1-20.1c1.6-.5 2.1 0 1.7 1.7-1.7.4-2.2-.1-1.7-1.7zm1.3-39.6c1.5-1.1 3.4 1.4 2 2.6-1.5 1.2-3.3-1.4-2-2.6zm-3.9-67.3c1.3-1.2 3.3 1 2 2.2-1.3 1.2-3.2-1-2-2.2zm-.4 3.9c1.6-.5 2.1 0 1.7 1.7-1.7.4-2.2-.1-1.7-1.7zm1.7 27.4c-1.4.4-1.9-.1-1.5-1.4 1.4-.5 1.9 0 1.5 1.4zm-1.2 23.6c1.6-.5 2.2 2.3.6 2.6-1.5.4-2-2.2-.6-2.6zm-.3 70c1.8-1.3 3.1 1.6 1.2 2.4-1.8 1.4-3.1-1.6-1.2-2.4zm-2.2-92.9c1.6-.1 1.5 2.7-.1 2.7-1.7-.1-1.5-2.8.1-2.7zm-2.1 27.7c-1.7.5-2.6-2.3-.8-2.8 1.6-.5 2.5 2.4.8 2.8zm-1.8-48.7c1.4-1.2 3.1 1.3 1.6 2.4-1.5 1.1-3.2-1.4-1.6-2.4zm-3.1-42.8c1.3-1 2.8 1.2 1.6 2.2-1.4 1-3-1.3-1.6-2.2zm.1 155.9c1.3-1.4 3.6.8 2.2 2.2-1.4 1.4-3.7-.9-2.2-2.2zm1 15.5c1.4-.6 2.3 1.9 1.2 2.7-1.6.6-2.6-2-1.2-2.7zm1.6 15.9c-1.7.5-2.2 0-1.7-1.7 1.6-.5 2.2.1 1.7 1.7zm1.4-24.6c-1.4-.3-2-2.5-.9-3.5 1.9-.8 2.9 3.3.9 3.5zm1.2-11.1c1.4-.5 1.8 0 1.5 1.4-1.5.5-2 0-1.5-1.4zm4.4 44.5c-1.4.4-1.9-.1-1.5-1.4 1.4-.5 1.9 0 1.5 1.4zm10.6 2.8c-1.3 1.3-3.4-.8-2-2 1.1-1.3 3.3.8 2 2zm-8.1-10.8c-2.2-1.1-3.7-3.1-5.3-4.7 2.4-1.7 4.9-3.2 7.5-4.6 2 2.7 4.2 5.2 6.5 7.6-3 .6-5.8 1.7-8.7 1.7zm21.8 22.5c-1.3-.7-1.3-1.4 0-2 1.3.7 1.3 1.3 0 2zm8.1-8.8c-1.4 1.1-3.2-1.3-2-2.5 1.3-.8 3.1 1.4 2 2.5zm3.5 9.2c-1.2.9-2.7-1.1-1.5-1.9 1.1-1 2.6 1 1.5 1.9zm4.6-17.3c.8-1.4 3.2 0 2.1 1.4-.9 1.4-3.2-.1-2.1-1.4zm2.9 22.5c-1.7-.5-.6-2.9.9-2.5 1.6.5.5 3-.9 2.5zm4.6-13.9c-1.7.5-2.2 0-1.7-1.7 1.6-.5 2.2.1 1.7 1.7zm43.6-70.7c1.4-.5 1.8 0 1.5 1.4-1.5.5-2 0-1.5-1.4zm-40.6 75.2c1.2-1.3 3.8.5 2.8 2-1.2 1.2-3.8-.5-2.8-2zm-2.1 6.3c1.2-1 2.5-1.9 3.8-2.8.4 1 .9 2 1.4 3.1-1.7-.2-3.5-.3-5.2-.3zm10.4-10.4c-.3-2-.6-4-.8-6 1.9.8 3.9 1.8 5.9 2.6-1.7 1.2-3.4 2.3-5.1 3.4zm7.7.5c-1.5 1.2-3.2-1.4-1.6-2.4 1.4-1.2 3 1.4 1.6 2.4zm8.6 3.5c-1.2 1.1-2.6-1.1-1.3-1.9 1.1-1 2.5 1.1 1.3 1.9zm.4-9.5c-1.5 1.2-3.2-1.4-1.6-2.4 1.4-1.2 3 1.4 1.6 2.4zm6.3-23.6c-1.3-.7-1.3-1.4 0-2 1.3.7 1.3 1.3 0 2zm5.1-34.6c1.5-.1 1.4 2.4 0 2.4-1.6.1-1.5-2.4 0-2.4zm1.1 36.6c.2-.3.6-.8.8-1.1 3.3-.6 0 4.2-.8 1.1zm3.6-2c-1.6-.2-3.1-.4-4.5-.6 1.9-1 3.8-1.8 5.8-2.6-.5 1-.9 2.1-1.3 3.2zm2-9.6c-1.3 1-2.9-1.2-1.6-2.2 1.3-1.1 2.8 1.2 1.6 2.2zm6-31c-.9 2.2-1.9 4.3-2.8 6.4-1.3-2.2-1.7-4.7-1.8-7.1 1.5.2 3 .5 4.6.7zm-3.8 18.9c2-.2 4-.4 6-.7.1.9.3 1.8.6 2.8-1.7.1-5 .4-6.7.6 0-.7.1-2.1.1-2.7zm1.7 42.2c-1.4.4-1.9-.1-1.5-1.5 1.4-.4 1.9.1 1.5 1.5zm1-26.8c-1.7.5-2.2 0-1.7-1.7 1.6-.5 2.2.1 1.7 1.7zm4 .8c-1.4.4-1.9-.1-1.5-1.4 1.4-.5 1.9 0 1.5 1.4zm-2-36.9c-.9-1.4 1-2.8 2.3-2.4 2.1 1.1-1 4-2.3 2.4zm4.3 10.4c-1.3-.7-1.3-1.4 0-2 1.3.7 1.3 1.3 0 2zm3.3-2.4c-.9 1.1-2.9-.3-1.9-1.5.8-1.1 2.8.4 1.9 1.5zM354.1 352.7c4.5 2.5 9.1 5 13.4 7.8 0-13.6 0-27.3-.1-40.9-20.1-.1-40.1-.1-60.2.1 4.3 2.4 8.6 5 11.6 9-5.7-2.5-10.7-6.5-16.6-8.7-8.6-.9-17.2-.5-25.8-.5-.1-17-.1-33.9 0-50.9 24-.1 48 0 72 0 .1-16 .1-32 0-48-24-.1-48 0-72 0v-140c20.2-.1 40.4 0 60.6 0l-.6-4.2c1.6 1.4 2.7 3.8 5 4.1 8.6.5 17.3.1 26 .1 0-6.9 0-13.8-.1-20.7-1 .1-1.9.2-2.9.4 3.4-8.8 3.2-18.3 3.1-27.6-11.3-.1-22.5-.1-33.8-.1.8 5.1 1.8 10.1 1.8 15.3.2 9.5 1.7 19 2 28.5-2.4-5-2.7-10.7-3.8-16.1-1.8-9.1-1.9-18.4-2.4-27.6-36-.1-72-.1-107.9 0v335c48.3-.2 96.7.6 145-.4-3.6-6.1-10.5-8.8-14.3-14.6zm-53.5-113.1c.9.1 2.6.2 3.4.3-1.4 1.4-2.7 2.8-4.1 4.2.2-1.5.5-3 .7-4.5zm-15.1 13.9c.8 1.7 1.6 3.4 2.3 5.1-1.4-.1-2.7-.1-4.1-.1-.8-1.3-1.5-2.5-2.3-3.7 1.4-.5 2.8-1 4.1-1.3zm57.9-196.8c-.1.9-.2 2.6-.3 3.4-1.4-1.4-2.9-2.7-4.2-4.1 1.5.2 3 .5 4.5.7zm-27.8-3.9c1.6-.5 2.2 0 1.7 1.7-1.6.4-2.2-.1-1.7-1.7zm-64.7-.1c1.4-.4 1.9 0 1.4 1.5-1.4.4-1.9-.1-1.4-1.5zm-.1 101.5c.2 1.5.4 2.9.6 4.4-.8 0-2.5-.1-3.3-.2l2.7-4.2zM236.6 140c1.2-1.1 2.5 1 1.3 1.9-1.1 1-2.5-1.1-1.3-1.9zm4.4 90.5c-2-.5-4-1.1-6-1.8 2 .5 4 1.1 6 1.8zm-8.7 85.1c.2-1.9.5-3.8.7-5.7 1.1 1.7 2.1 3.6 3.1 5.4-1 .1-2.9.3-3.8.3zm4.3-62.8c1.6-.5 2.2 0 1.7 1.7-1.6.4-2.2-.1-1.7-1.7zm3.3 92.2c-1.2 1-2.5-1.1-1.3-1.9 1.2-.9 2.6 1.1 1.3 1.9zm1.7-72.3c-1.3-.7-1.3-1.4 0-2 1.3.7 1.3 1.3 0 2zm6.4-15.4c-1.3-1.6-3.9-4.9-5.3-6.5 3.8-3.2 8.1-1.3 11.7 1.2-1.9 2-4.1 3.7-6.4 5.3zm10.2 71.2c-1.8.6-2.4-2.4-.7-2.7 1.8-.6 2.5 2.3.7 2.7zm2.5-273.2c.1-2.3.3-4.6.5-6.9.7.4 2.1 1.2 2.8 1.7-1 1.7-2.1 3.5-3.3 5.2zm37.9 284.4c-1.3-.7-1.3-1.4 0-2 1.3.7 1.3 1.3 0 2zm25.7 7.5c-1.4.4-1.9-.1-1.4-1.4 1.4-.5 1.9 0 1.4 1.4zm5.4 4.1c-1.2-2 .5-4.2 1.1-6.2 2.5 2.8 4.3 6 4.6 9.9-2.1-1-4.3-1.9-5.7-3.7zm1.9-11.1c-4.1-3.9-8.2-7.7-12.4-11.5 9.1 4.1 17.2 10.2 23.7 17.8-3.9-2-7.9-3.7-11.3-6.3zm16.9 10.3c.1-.8.2-2.5.2-3.4l3.9 4.5c-1.3-.4-2.7-.8-4.1-1.1zm706.3-317.8c-2.8 10-5.6 19.9-7.3 30.2l4.2 2.4c-1.7-.2-3.5-.4-5.2-.6-11 40.1-20.7 80.5-31.8 120.5-4.7-11.8-6.9-24.4-10.2-36.6-10-38.7-20.2-77.3-30.2-116-18.4.3-36.7.4-55.1 0 19.3 65.7 39.1 131.2 58.4 196.9 3.6 12.4 8.7 24.8 7.9 38.1-.1 33.3-.1 66.7-.1 100 17.7.3 35.3-.2 53-.3.2-34.3-.2-68.5.1-102.7-.6-10.6 3.8-20.3 6.6-30.3 15-51.2 30.8-102.2 45.4-153.6-1.3.7-2.1.4-2.4-.9 1.1-.8 1.9-.5 2.4.9 4.4-12.3 7.3-25.1 11.7-37.4.3 12.4.3 24.9.3 37.3h54.9c0 58 .1 116-.1 174 0 8.3-.1 17 2.7 25-.9-.2-1.7-.5-2.5-.7-.1 29.5 0 59.1 0 88.7 17.8 0 35.6.1 53.4-.1-.5-9.8-6.5-17.9-11.4-26-4.1-7.6-9.8-14.4-12.8-22.6 4.3 4.1 6.8 9.6 9.8 14.6 4.3 7.3 9 14.3 13.8 21.3.2-91.4 0-182.8.1-274.2h55c.1-16 .1-32 0-48-70.2 0-140.4-.1-210.6.1zm-106.2 21c-1.3-.7-1.3-1.4 0-2 1.3.7 1.3 1.3 0 2zm88 131c1.3.7 1.3 1.3 0 2-1.3-.6-1.3-1.3 0-2zm-5 11.1c1.6-.5 2.2 0 1.7 1.7-1.6.4-2.2-.1-1.7-1.7zm-.7 38.9c1.4-.5 1.9 0 1.4 1.4-1.4.5-1.9 0-1.4-1.4zm-5-33.7h2.2v3c-.7.2-2.1.5-2.8.7.2-1.3.4-2.5.6-3.7zm-6 24.7c1.4-.5 1.9 0 1.4 1.4-1.4.5-1.9 0-1.4-1.4zm-1.3-10.8c1.5 0 1.2 2.4-.2 2.4-1.5 0-1.3-2.5.2-2.4zm-11-9.8c1.2-.9 2.5 1.1 1.3 1.9-1.2 1-2.5-1.1-1.3-1.9zm1 94.6c-1.3-.7-1.3-1.4 0-2 1.3.7 1.3 1.3 0 2zm2.8 17.5c0 .8-.1 2.3-.1 3.1-.6.4-1.9 1.3-2.6 1.7-.7-1-1.4-1.9-2-2.9 1.6-.7 3.1-1.3 4.7-1.9zm-14.2-104.5c1 2.2 1 4.5 0 6.7-.1-2.2-.1-4.4 0-6.7zm2.4 15.8c.2 2.1.3 4.3.5 6.4-1.4-1-2.7-1.9-4.1-2.8l3.6-3.6zm-.5-16.4c1.7-.7 3.5-1.3 5.3-2 0 .9.1 2.9.1 3.8-1.9-.6-3.7-1.2-5.4-1.8zm-5.8 50.1c-1.3-6.8 4.7-11.4 9.5-15-2 5.7-5.8 10.3-9.5 15zm9 41.2c-1.6.5-2.2 0-1.7-1.7 1.7-.5 2.2.1 1.7 1.7zm1.8-20.3c-1.4 1.1-2.8-1.3-1.4-2.2 1.3-1.1 2.8 1.3 1.4 2.2zm-.5-73.1c-.1-.3-.4-1-.6-1.3 1.4-2.2 3.2 1.9.6 1.3zm4.8 125.1c-1.3 1-2.9-1.2-1.6-2.2 1-.8 2.1.3 2 1.3.7-.5 2.2-1.4 2.9-1.9.7 1.9 1.3 3.8 1.8 5.7-1.6-1.2-3.2-2.5-4.8-3.9.1.4 0 .7-.3 1zm5.1-65.2c-1.6.6-2.5-1.9-.8-2.4 1.5-.7 2.4 1.9.8 2.4zm2.7 70.2c-1.2.9-2.6-1.1-1.5-1.9 1.2-1 2.6 1 1.5 1.9zm1.4-40.4c-1.3-.7-1.3-1.4 0-2 1.3.7 1.3 1.3 0 2zm6 40.4c-2 .2-1.7-2.7.1-2.6 2-.3 1.8 2.8-.1 2.6zm4.6-40.6c-2.6-4-4.1-8.6-4.9-13.2-3.6-6.4-5.6-13.6-7.4-20.7 3.8 6.3 6.8 13.3 7.4 20.6 3.7 3.4 5.1 8.4 4.9 13.3zm2.5.6c2.4 3.8 4.2 8 5.7 12.3-4.8-2.3-6.5-7.3-5.7-12.3zm6 16.7c-1.4-.3-2-2.5-.9-3.5 2-.8 3 3.3.9 3.5zm13.2-144.5c-.9 1.1-2.9-.3-1.9-1.5.9-1.1 2.8.4 1.9 1.5zm-3.9-51.9c2.2.7 4.2 1.8 6.1 3.2-2.1-.9-4.2-1.9-6.1-3.2zm6.3 0c-1.6.5-2.2-.1-1.7-1.7 1.7-.5 2.2.1 1.7 1.7zm-.5-54.4c8.4 1.4 17.6 3.3 23.3 10.2-8.1-2.3-16.4-5-23.3-10.2zm24.7-9.2c-2.1 0-1.9-3.2.1-2.9 1.9-.1 2 3.2-.1 2.9zm3.5 21.1c-.8 1.2-3.3.3-2.7-1.2.8-1.2 3.4-.3 2.7 1.2zm76.7-5.8c-1.7.3-2.8-2.6-.9-3.2 1.7-.4 2.7 2.7.9 3.2zm28.9 181.7c1.6-.5 2.2 0 1.7 1.7-1.6.4-2.2-.1-1.7-1.7zm-2.1 28.8h3v3h-3v-3zm-2.6-138.9c1.4-.4 1.9 0 1.4 1.4-1.4.5-1.9 0-1.4-1.4zm-4.1-19.5c.9 1.5 1.8 3.1 2.7 4.7-.8.2-2.3.7-3.1.9.1-1.9.2-3.8.4-5.6zm2.4 22.9c-1.2.9-2.6-1.1-1.5-1.9 1.2-1 2.6 1 1.5 1.9zm-17.9 135.1c-1.4.4-1.9-.1-1.4-1.5 1.4-.4 1.8.1 1.4 1.5zm7.4 8c-1.5.9-3.2-1.6-2-2.7 1.4-.7 3 1.6 2 2.7zm-.5-224c1.1-2.4 2.7-4.4 4.7-6.1-1.1 2.4-2.7 4.5-4.7 6.1zm1.5 225.7c6.3 6.6 11.7 14.4 14.8 23-6.1-6.8-12.9-13.7-14.8-23zm17.3 26.3c-1.2 1.3-3.4-.7-2.2-2 1.1-1.3 3.4.7 2.2 2zm1-13.2c-1.3 1.4-3.6-.9-2.2-2.2 1.4-1.4 3.7.9 2.2 2.2zm1.8-174.5c2-.7 4.1-1.3 6.3-1.8-1.9 1.2-4 2.1-6.3 1.8zm1.1 53.2c1.4-.5 1.9 0 1.4 1.4-1.4.5-1.9 0-1.4-1.4zm1.7 18c-1.3-.7-1.3-1.4 0-2 1.3.7 1.3 1.3 0 2zm2.8-32.7c-2.1.7-3-2.3-.7-2.5 2-.7 3.1 2.4.7 2.5zm1.7-62.7c-1 1.3-3.2-.3-2.1-1.6.9-1.3 3.2.2 2.1 1.6zm35.2-50.1c-1.4.4-1.9-.1-1.4-1.4 1.4-.5 1.8 0 1.4 1.4zm9 4.5c.4-1.1.8-2.1 1.2-3.2 1.4.1 2.9.2 4.3.4-1.8.9-3.7 1.9-5.5 2.8zm1366.2 62.9c0-13.4-.5-27-4.1-40-4.2-14.5-12.4-28.3-24.7-37.3-7.6-6-17-9.2-26-12.2-1.3 2-2.5 4-3.7 5.9.3-2.2.7-4.3 1.1-6.4-12-2.5-24.4-2.4-36.6-1.2-2.4 8.7-4.8 17.4-6.8 26.1-1.3 5-.1 10.2.3 15.3-4.1-2.4-8-5.2-11.2-8.7-.1-2.4 0-4.8.2-7.2 2.4 1.8 4.7 3.6 7.1 5.5 3.6-10.1 6-20.5 7.5-31.1-18.5 3.1-36.9 11.7-48 27.4-11.7 16.6-15.9 37.6-15.4 57.7.1 55 .1 110 0 165 0 15.7.6 31.9 6.4 46.7 5.4 14.7 15.7 27.8 29.7 35.2 14.7 8.5 32 10.5 48.7 10.3-.6-1.8-1.2-3.6-1.7-5.4 2.3 1.8 4.2 5.3 7.6 4.8 20.7-1.5 41.7-10.7 54.1-27.9 11.7-16.6 15.9-37.6 15.4-57.7 0-54.8 0-109.8.1-164.8zm-16.6 39.1c-1.1 1.5-2.5 2.7-3.8 4 .6-2.6 1.3-5.1 2.1-7.6.4 1.2 1.1 2.4 1.7 3.6zm-3.7-5.3c-1.1 1.5-3.6-.2-2.4-1.6.9-1.5 3.5.1 2.4 1.6zm-2.5 59.5c1.4-.1 1.4 2.4 0 2.4-1.5 0-1.5-2.4 0-2.4zm-1.7-7.2c.8-1.2 2.8.1 1.9 1.3-.8 1.3-2.9-.1-1.9-1.3zm.6-76c1.2.7 1.2 1.3 0 2-1.4-.6-1.4-1.3 0-2zm-5-16.9c1.6-.5 2.1 0 1.7 1.7-1.7.4-2.2-.1-1.7-1.7zm3.4 3.5c0 1.4.1 2.7.2 4.1h-5.1c1.7-1.4 3.3-2.7 4.9-4.1zm-71.4-62.4c1.6-.1 1.5 2.7-.1 2.7-1.7-.1-1.6-2.8.1-2.7zm-8.4 15.3c-.1 8.9-.4 18.3-5.3 26 0-8.9 1.3-17.9 5.3-26zm-13.5 64.6c1.8-.8 2.3 2.3.7 2.7-1.9.7-2.4-2.2-.7-2.7zm.9 3.5c-.4 8.8-1.8 17.6-5.1 25.8.2-6.2 1.9-12.4.9-18.6-.3-3 2.7-4.9 4.2-7.2zm-6.8 179.5c.8-1.4 3.2 0 2.2 1.4s-3.3-.1-2.2-1.4zm.6 11.5c-1.6 0-1.3-2.5.2-2.4 1.4 0 1.2 2.4-.2 2.4zm2.2-94.6c1.3.7 1.2 1.3 0 2-1.4-.6-1.4-1.3 0-2zm-3.6-55.3c-.6-5.4.3-10.8 2.9-15.6.8 5.4-.4 10.8-2.9 15.6zm1.7-107.5c1.4-.1 1.4 2.4 0 2.4-1.5 0-1.5-2.4 0-2.4zm-.3 68.3c-.1 1.7-.2 3.4-.3 5.2-1.2-.8-2.3-1.4-3.3-2.2 1.2-1.1 2.4-2.1 3.6-3zm-12.8 27.6c1.6-.5 2.1 0 1.7 1.7-1.7.4-2.2-.1-1.7-1.7zm-1.7 15.9c1.4-.5 1.8 0 1.5 1.4-1.5.5-2 0-1.5-1.4zm1.8 55.3c-1.1 1.4-3.9-.2-2.8-1.8 1-1.2 3.8.2 2.8 1.8zm-9.8-148.3c1.4-.5 1.8 0 1.4 1.4-1.4.5-1.9 0-1.4-1.4zm-1 103.3c1.2-1.3 3.3.8 2 2-1.3 1.3-3.4-.8-2-2zm3.5 65.1c-1.8-.1-1.5-3.1.2-3 1.7.1 1.4 3-.2 3zm2.5-71.1c1.2-1.3 3.3.8 2 2-1.3 1.3-3.4-.8-2-2zm3.3 113.4c-1 1.5-3.6-.2-2.4-1.6.9-1.5 3.5.1 2.4 1.6zm.4-27.7c-1.4-.7-1.3-1.4 0-2 1.3.7 1.3 1.3 0 2zm-.7-12.7c-.3-1.9-.4-3.7-.6-5.5.7.1 2 .2 2.7.2-.7 1.8-1.4 3.6-2.1 5.3zm.9-71c-.1-1-.1-2 0-3h2.2c.1 1.2.3 2.5.6 3.7-.7-.2-2.1-.5-2.8-.7zm7.8 36.8c1.6-.5 2.1 0 1.7 1.7-1.7.4-2.2-.1-1.7-1.7zm6.2 78.7c-.5 1.9-1 3.8-1.4 5.7-1.2-1.1-2.3-2.1-3.4-3.2 1.5-.8 3.1-1.7 4.8-2.5zm-3.3 35.6c3.2-1.8 6.6-3.2 10.2-4.4-2.1 3.5-5.9 5.6-10.2 4.4zm8.9-207.2c-.2-8.6 2.2-17 6.3-24.5.2 8.6-3.2 16.7-6.3 24.5zm5.8-31.8c-1-.9-.6-2.9.6-3.5 1.8.1 1.2 4-.6 3.5zm4.1 248.5c.4-1 .8-2 1.3-3 1.3 0 2.6-.1 4-.1.3 1.4.7 2.8 1.2 4.3-2.3-.4-4.4-.8-6.5-1.2zm1.6-10.9c1.4-.5 1.8 0 1.5 1.4-1.5.5-2 0-1.5-1.4zm16.4 11.7c-1.7.5-2.2 0-1.7-1.7 1.6-.5 2.2.1 1.7 1.7zm27.7 9.5c1.2-.9 2.5 1.2 1.3 2s-2.5-1.3-1.3-2zm1.6-3.1c1.6-.5 2.1 0 1.7 1.7-1.7.4-2.2-.1-1.7-1.7zm2.2 9.5c-1.2 1.1-3.1-.9-2-2s3 .8 2 2zm-7.4-16.1c4.3-.7 7.9 1.9 10.7 4.9-4.1-.1-8.5-.8-10.7-4.9zm4.4-3.4c.9-1.5 3.5.2 2.4 1.6-1.1 1.5-3.6-.2-2.4-1.6zm5.3-8.6c-1.9 2.8-3.9 5.6-6.8 7.5-2.8-1.3-4.5-3.9-6.2-6.3h4.9c-.7-1.5-1.4-3.1-2-4.6 1.4-1.9 2.7-3.8 4.2-5.6 2.7 1.1 7.4.6 7.6 4.5.4 2 .7 4.1 1.1 6.2-.9-.7-1.8-1.2-2.8-1.7zm3.4-49.6c.1 8.1-.4 16.9-5.2 23.8-8.2 12.9-27.9 12.8-39.6 4.9-7.9-6.9-9.5-17.8-9.2-27.7 0-61.7-.1-123.4.1-185-.8-12.8 7.4-27.8 21.4-28.5 10.5-2.2 23.5 1.1 28.5 11.5 4.7 7.7 3.6 17.3 4.1 26-.2 58.3-.1 116.7-.1 175zm2.1 43.1c-1.4-.7-1.3-1.4 0-2 1.3.7 1.3 1.3 0 2zm4.4-3.9c.4-2.1.8-4.2 1.1-6.3 1.1 1.6 2.2 3.3 3.4 5-1.6.4-3.1.9-4.5 1.3zm10.7-179.7c1.1-.9 2.6 1 1.5 1.9-1.2 1-2.7-1-1.5-1.9zm2.2 98.9c1.1 1.7 2 3.6 3 5.4-.9 0-2.7.1-3.6.2.2-1.9.4-3.7.6-5.6zm2.8 60.5c-1.7-.4-.6-2.9.9-2.6 1.6.5.5 3-.9 2.6zm2.6-6.1c-1.7.5-2.2 0-1.7-1.7 1.6-.5 2.2.1 1.7 1.7zm1.3-157.7c1.2.7 1.2 1.3 0 2-1.4-.6-1.4-1.3 0-2zm-.7 138c1.3-.5 1.8 0 1.5 1.4-1.5.5-2 0-1.5-1.4zm2 16.6c-.9 1.1-2.9-.3-1.9-1.5.8-1.1 2.8.4 1.9 1.5zm0-76.6c1.4-.5 1.8 0 1.5 1.4-1.5.5-2 0-1.5-1.4zm.9 64.5c2.7-1.5 5.6-2.3 8.6-2.7-2.2 2.1-5.9 3.1-8.6 2.7zm10.5-64c-1.5.4-1.9-.1-1.5-1.4 1.4-.5 1.9 0 1.5 1.4zM460.5 28.8c-18 .3-35.6 6.4-49.6 17.6 7.7 4.2 14.3 10.5 17.6 18.7-6.8-5.3-12.6-11.8-17.6-18.7-18.5 17.3-25.1 43.5-24.5 68.1.1 56.7 0 113.3.1 170 0 18.9 2.5 38.8 13 55 11.5 19.6 34.3 29.9 56.3 31.8 20.8 1.1 43.4-.9 60.7-13.7 20-13.3 28.3-38 29.9-61 .2-48.3.1-96.6 0-145-3.4-.7-7.5-1-9.8-4-1.1-2.1-1.8-4.4-2-6.8 2.6-3.9 7.5-5.7 12-4.1 0-25.6 1.6-53.7-13.1-76.2-14.6-24.6-45.7-34-73-31.7zm58.1 234.9c1.3.7 1.3 1.3 0 2-1.3-.7-1.3-1.3 0-2zM506.6 85c-.1-.3-.4-1-.6-1.3 1.4-2.2 3.2 1.9.6 1.3zm-15-17.3c1.3.7 1.3 1.3 0 2-1.3-.6-1.3-1.3 0-2zm-10-20.9c1.6-.5 2.2 0 1.7 1.7-1.6.4-2.2-.1-1.7-1.7zm3 10.7c-.2 1.5-.3 3.1-.5 4.6-1.4-1.4-2.7-2.9-4-4.4 1.5 0 3-.1 4.5-.2zm-35-13.2c1.6-1 2.8 1.8 1.3 2.6-1.5 1-2.7-1.8-1.3-2.6zm-24.9 20.9c1.7 1.6 3.3 3.2 5 4.8-1.7 0-3.4.1-5.1.2l.1-5zm2.6 20.2c-1.6.5-2.2 0-1.7-1.7 1.7-.5 2.2.1 1.7 1.7zm-5.7 1.4c1.6-.5 2.2 0 1.7 1.7-1.6.4-2.2-.1-1.7-1.7zm-2 63.9c1.3.7 1.3 1.3 0 2-1.3-.6-1.3-1.3 0-2zm0 51c-1.3-.7-1.3-1.4 0-2 1.3.7 1.3 1.3 0 2zm-1.4-43.2c-1.6.9-3.4-1.8-1.5-2.6 1.6-.9 3.4 1.7 1.5 2.6zm0-45.1c-1 1.5-3.5-.2-2.4-1.6 1-1.5 3.5.1 2.4 1.6zm-4.1-17.6c1.6-.5 2.2 2.3.6 2.6-1.5.4-2-2.2-.6-2.6zm-17.6 9.1c-1.6.6-2.5-1.9-.8-2.4 1.5-.7 2.5 1.9.8 2.4zm3.1 136.8c-1.3-.7-1.3-1.4 0-2 1.3.7 1.3 1.3 0 2zm3.7 63.9c.5-1.5 1.1-2.9 1.7-4.3.6 1.4 1.3 2.8 1.9 4.2-.9 0-2.7.1-3.6.1zm4-56.8c-.4-2.3-.9-4.6-1.5-6.9 1.8 0 3.7 0 5.6-.1-1.5 2.3-2.8 4.7-4.1 7zm2.8 60.8l-.3-5.7c1.7 1.8 2.4 3.8.3 5.7zm1.5 3.1c-1.3-.7-1.3-1.4 0-2 1.3.7 1.3 1.3 0 2zm1.7-13.3c-1.6.5-2.2 0-1.7-1.7 1.7-.5 2.2.1 1.7 1.7zm0-14c-1.6.5-2.2 0-1.7-1.7 1.7-.5 2.2.1 1.7 1.7zm0-6c-1.6.5-2.2 0-1.7-1.7 1.7-.5 2.2.1 1.7 1.7zm.4-9.3c1.8-1.1 2.9 2 1.3 2.8-1.7 1.1-2.9-2-1.3-2.8zm2.6 19.3c-1.6.5-2.2 0-1.7-1.7 1.7-.5 2.2.1 1.7 1.7zm1.3-30.6c1.6-.5 2.2 0 1.7 1.7-1.6.4-2.2-.1-1.7-1.7zm3.7 22.6c-1.6.5-2.2 0-1.7-1.7 1.7-.5 2.2.1 1.7 1.7zm0-73c-1.6.5-2.2 0-1.7-1.7 1.7-.5 2.2.1 1.7 1.7zm3.6 97.9c-.9 1.1-2.9-.3-1.9-1.5.9-1.1 2.8.4 1.9 1.5zm1-145.2c-1.1.2-2.3.4-3.4.7l1.2-3c.7-.1 2.2-.2 2.9-.2-.2.6-.5 1.9-.7 2.5zm3.4 75.3c-1.6.5-2.2 0-1.7-1.7 1.7-.5 2.2.1 1.7 1.7zm.3-126.6c-3.1-.6-5.9-.8-8.9-1.3 1.2-4.3 4.2-7.9 9.3-7.8 0 3-.2 6.1-.4 9.1zm.6-42.8c1.1-1.1 3.6.5 2.6 1.9-1.2 1.2-3.5-.5-2.6-1.9zm2.9 282.3c-.9 1.3-3.2-.3-2.1-1.6.9-1.3 3.2.2 2.1 1.6zm.5-300.3c-.1-.3-.4-1-.6-1.3 1.4-2.2 3.2 1.9.6 1.3zM455 342.1c-1.3.2-2.6.4-3.8.6.5-3 1.3-5.5 2-8.3.7.2 2.2.5 3 .7-.4 2.3-.8 4.5-1.2 7zm38.4-47.5c.2 10-3.8 21.1-12.9 26.1-10.1 4.2-22.7 4.1-31.8-2.4-7.9-6.9-9.5-17.8-9.2-27.7 0-61.7-.1-123.4 0-185-.4-7.8 2.9-14.9 6.5-21.5-2.7-3.5-5.3-7-7.5-10.8 3.3 2.5 6.4 5.3 9.7 7.9 9.5-3.6 20.5-6.9 30.2-2.5 6.7 2.2 11.1 8.4 13.3 14.8 2.3 8.5 1.7 17.4 1.9 26.1-.3 58.3.1 116.7-.2 175zM500.6 69c-.1-.3-.4-1-.6-1.3 1.4-2.2 3.2 1.9.6 1.3zm2.7 244.3c-1.6.5-2.3-2.2-.7-2.5 1.6-.5 2.3 2.2.7 2.5zm-.6-242c-1.7-.5-.6-2.9.9-2.5 1.6.5.6 3-.9 2.5zm1.6-9.9c-1.6.5-2.2-.1-1.7-1.7 1.7-.5 2.2.1 1.7 1.7zm.5 38.4c.9-1.4 3.2.1 2.1 1.4-.8 1.4-3.2-.1-2.1-1.4zm3.3 200.3c-.8.1-2.3.3-3 .4l3.3-4.2c-.1 1.2-.3 2.5-.3 3.8zm1.5-225.3c1.6-.5 2.2 0 1.7 1.7-1.6.4-2.2-.1-1.7-1.7zm2.3 192.5c-.9 1.1-2.9-.3-1.9-1.5.9-1.1 2.8.4 1.9 1.5zm2.9 42.1c2.3.8 4.4 1.9 6.3 3.4-2.4-.6-4.6-1.7-6.3-3.4zm10.4 18.7c-1.1.9-2.6-1.1-1.5-1.9 1.2-1 2.6 1 1.5 1.9zm2.4-156.4c-1.3-.7-1.3-1.4 0-2 1.3.7 1.3 1.3 0 2zm4 22c1.4-.6 2.2 1.8.7 2.2-1.4.5-2.2-1.8-.7-2.2zm7-7c-1.3-.7-1.3-1.4 0-2 1.3.7 1.3 1.3 0 2zm-.2-17.8c1.1-.9 3-1 4.1-.1.1 1.9-4.9 2.3-4.1.1zm1.6 4.1c.1.8.3 2.3.4 3l-4.2-3.3c1.2.1 2.5.2 3.8.3zm-4.3 109.2c-1.1 1.1-3.6-.5-2.8-1.9 1.1-1.1 3.6.4 2.8 1.9z"/><path d="M189.3 292.3c2-.6 4.1-1.3 6.1-1.9.1-64.2.2-128.4-.1-192.6-3.3-4-6.7-7.9-9.4-12.4 3.5 2.4 6.4 5.3 9.5 8.2 0-20.4.1-40.7 0-61-15.8-.1-31.6-.1-47.4 0 .8 3.5.6 7.5 2.9 10.5 2.6 3.3 5 6.8 6.7 10.7-3-2.6-5.9-5.2-8.9-7.7-.9 62.3.6 124.6-.8 186.9-18.6-66.6-35.8-133.6-53.6-200.4-22.3-.1-44.6-.1-66.8-.1 0 85.9-.1 171.8 0 257.7 16 1.3 31.9 2.7 47.9 2.9.3-56.3-.5-112.7.4-169 6.2 19.7 10.7 39.9 16.3 59.7 16.6 61.2 32.6 122.5 49.3 183.7h54.1c0-24.5.1-49-.1-73.6-2.1-.4-4.1-1-6.1-1.6zM44 254.7c2.3.3 4.7.8 6.9 1.5-2.3-.2-4.6-.7-6.9-1.5zm7.8-142.8c1.3-1.1 2.9 1.2 1.6 2.2-1.4 1-2.9-1.3-1.6-2.2zm3.9 11.5c-.9 1.2-3.3 0-2.5-1.4.8-1.2 3.2 0 2.5 1.4zm17.5-10.1c-.6-2.2-1.2-4.4-1.6-6.6 2.6 1.5 2.7 4.1 1.6 6.6zm5.9-71.5c2-1.8 4.3-3.3 6.8-4.4-2 1.8-4.3 3.3-6.8 4.4zM90 107.2c-1.3.1-2.6.2-3.8.3l4.2-3.3c-.1.7-.3 2.2-.4 3zm95-22.5c-8.4-5.3-14.1-13.9-18.5-22.5 8.1 5.8 12.7 14.7 18.5 22.5zm-8.1 154.5c-.9 1.4-3.2-.1-2.2-1.4 1-1.4 3.3 0 2.2 1.4zm-2.6-147c-1.4.4-1.9-.1-1.4-1.4 1.4-.5 1.9 0 1.4 1.4zm-4.7 65.5c-1.3-.7-1.3-1.4 0-2 1.3.7 1.3 1.3 0 2zm-3 48.1c1.6-.5 2.2 0 1.7 1.7-1.6.4-2.2-.1-1.7-1.7zm-7.9-150.3c1.3-.9 3.2 1.3 2.2 2.5-1.3.9-3.3-1.3-2.2-2.5zm.9 237.2c1.4-.6 2.2 1.8.7 2.2-1.4.5-2.2-1.8-.7-2.2zm0-180c1.3.7 1.3 1.3 0 2-1.3-.6-1.3-1.3 0-2zm-8.9 160.2c1.5-1.2 3.1 1.3 1.6 2.4-1.5 1.1-3.1-1.4-1.6-2.4zm-1.1 13.9c1.9-.6 2.7 2.5.8 2.9-1.9.6-2.7-2.5-.8-2.9zm-8-18.1c1.3.7 1.3 1.3 0 2-1.3-.7-1.3-1.3 0-2zm-36.1-129.8c-1.6.6-2.5-2-.8-2.4 1.5-.7 2.5 1.9.8 2.4zM126 295.5c-1 1.3-3.2-.3-2.2-1.6.9-1.3 3.2.3 2.2 1.6zm4.3-25.3c-1.4.4-1.9-.1-1.5-1.5 1.5-.4 2 .1 1.5 1.5zm2.3-3.3c1.7-.1 1.5 2.7-.1 2.7-1.6-.1-1.5-2.8.1-2.7zm.5 26.1c8.1-2.8 16.8-.7 24.8 1.3-8.3 1.6-16.8.9-24.8-1.3zm25.2 7.2c-1.4.4-1.9-.1-1.4-1.5 1.4-.4 1.9.1 1.4 1.5zm.2 48c3.3-2.4 7.3-1.5 10.9-.8v3.6c-3.9 1.6-7.9 0-10.9-2.8zm19-51.4c-.5-.8-.9-1.7-1.4-2.5-4.7-.2-9.5-.1-14.2-1 8.8-2.3 17.9-1.2 26.9-1.4-4 1.1-8 2.4-11.3 4.9zm1245-216.2c.1-16 .1-32 0-48h-144v335h144c.1-16 .1-32 0-48-30.3-.1-60.6 0-90.9 0-.1-16.7-.1-33.3 0-50 24-.1 48 0 72 0v-48c-24-.1-48 0-72 0v-141c30.2-.1 60.5.1 90.9 0zm-64.7-37.3c1.1-1 3 .8 2 2-1.2 1-3.1-.9-2-2zm-4.4 20.9c-.1.8-.4 2.4-.5 3.2-1.3-.4-2.6-.8-3.8-1.2 1.4-.7 2.9-1.4 4.3-2zm-7.6-12.2c.7.1 2 .2 2.7.3-.9 1.6-1.9 3.2-2.8 4.8 0-1.8 0-3.5.1-5.1zm24.8 292.7c1.3.7 1.3 1.3 0 2-1.3-.7-1.3-1.3 0-2zm-10.9 5.2c2.4-.3 4.9-.7 7.3-1-.9 2.5-1.3 5.5-2.3 8-2.1-.9-4.2-1.7-6.3-2.6.5-1.4.9-2.9 1.3-4.4zm-42.5-153.8c-.8 1.1-2.9-.1-2-1.3.7-1.3 2.8 0 2 1.3zm-1.6-123.4c1.3.7 1.3 1.3 0 2-1.3-.6-1.3-1.3 0-2zm-1.1 37c-.1.9-.3 2.6-.4 3.5-1.4-1.5-2.7-3-3.9-4.5 1.4.3 2.8.6 4.3 1zm-9.6 87.6c-.9 1.1-2.9-.3-1.9-1.5.9-1.1 2.8.4 1.9 1.5zM1302 95.7c.8-1.2 2.9.1 1.9 1.3-.8 1.3-2.8-.1-1.9-1.3zm-2.1 23c1.4-.5 1.9 0 1.4 1.5-1.4.4-1.9-.1-1.4-1.5zm-8.3 98.8c-1.8-.5-.6-3.2 1-2.7 1.8.5.5 3.3-1 2.7zm4-15.8c1.3.7 1.3 1.3 0 2-1.3-.6-1.3-1.3 0-2zm1.7 15.7c-1.6.5-2.2 0-1.7-1.7 1.7-.5 2.2.1 1.7 1.7zm2.3-58.6c1.6-.5 2.2 0 1.7 1.7-1.6.4-2.2-.1-1.7-1.7zm.8 149.5c-.2-3 .6-5 .7-7.7 1.5.4 2.9.9 4.5 1.3 0 2.9.3 6 .3 9-1.9-.9-3.7-1.7-5.5-2.6zm8.5-82.2c-.1-.8-.3-2.5-.4-3.4 1.1-.3 2.3-.6 3.4-.9-1 1.4-2 2.9-3 4.3zm.8-45c2.5-1 1.4 4-.6 3-.8-.9-.3-2.4.6-3zm-1.1-38.1c.6-1.5 1.3-3 1.9-4.5l3.6.4c-1.9 1.5-3.7 2.8-5.5 4.1zm6.1 187.9c1.4-1.2 3.1 1.3 1.6 2.4-1.5 1.1-3.1-1.4-1.6-2.4zm-.6 10.6c2 .9 3.9 2 5.7 3.3-2-1-3.9-2-5.7-3.3zm49.7-98.6c.9-1.3 3.2.2 2.2 1.6-1 1.3-3.3-.3-2.2-1.6zm-2.2-2.2c1.8-.7 2.3 2.2.7 2.7-1.9.7-2.5-2.3-.7-2.7zm496.1-205c-13.7 82.1-34.3 164.3-47.7 246.5-4.4 29.5-5 58.8-8.7 88.4 16 .1 35 .1 51.1 0 2.8-20.3 6.5-40.5 9.3-60.9 21.5-.1 43.1-.1 64.6 0 3.1 20.3 5.9 40.6 9.2 60.9 17.7.1 35.3.1 53 0-18.5-114.1-36.4-225.5-53.6-334.7-25.7-.6-51.5-.3-77.2-.2zM1840.9 252c1.3-1.4 3.6.9 2.2 2.2-1.4 1.4-3.6-.9-2.2-2.2zm-11.7 81.1c-1.2.9-2.7-1.1-1.5-1.9 1.1-1 2.6 1 1.5 1.9zm9.1-11.7c-1.7.5-2.2 0-1.7-1.7 1.6-.5 2.2.1 1.7 1.7zm.6-55.7c1.4-.5 1.9 0 1.5 1.5-1.5.4-2-.1-1.5-1.5zm1.8 16.1c1.9-.8 2.6 2.5.8 2.9-1.9.7-2.6-2.4-.8-2.9zm2 77.6c-1.2 1.1-3.2-.8-2-2 1-1 2.9.9 2 2zm1.5-85.5c-.7-2.1-1.4-4.2-2-6.2.6 0 1.8-.1 2.4-.1-.2 2.1-.3 4.2-.4 6.3zm1-10.5c-1 1.5-3.6-.2-2.4-1.6.9-1.5 3.5.1 2.4 1.6zm5.1 30c-1.7.5-2.2 0-1.7-1.7 1.6-.5 2.2.1 1.7 1.7zm1.4-112.1c-1.3 1.2-3.7-.8-2.6-2.3 1.3-1.2 3.6.9 2.6 2.3zm.6-9.7l1.6-2.4 3.9 3.3c-1.9-.3-3.7-.6-5.5-.9zm3.8 126.8c1.1-1.4 2.1-2.7 3.3-4 0 1.4 0 2.8.1 4.2-.9 0-2.5-.1-3.4-.2zm4.8-10.4c-1.3 1.3-3.4-.8-2-2 1.2-1.3 3.3.8 2 2zm46.7-203.3c1.3.7 1.3 1.3 0 2-1.4-.6-1.3-1.3 0-2zm-18-10.2c-.2.7-.5 2.1-.7 2.8h-3c0-.5 0-1.6-.1-2.2 1.3-.2 2.5-.4 3.8-.6zm-24 108.5c1.8 0 1.7 3.3-.1 3.3-1.9-.1-1.7-3.2.1-3.3zm1 90.7c-1.3-.7-1.3-1.4 0-2 1.3.7 1.3 1.3 0 2zm25.1 16.6c-1.5 0-1.5-2.4 0-2.4 1.4-.1 1.4 2.4 0 2.4zm19.6-2.9c-1.7.5-2.2 0-1.7-1.7 1.6-.5 2.2.1 1.7 1.7zm2.3-7.7c-1.3-.7-1.3-1.4 0-2 1.3.7 1.3 1.3 0 2zm-45.2-16.1c4.1-31.2 9.1-62.3 13.5-93.4 4.1-25.1 6.7-50.4 11.6-75.3 4.9 26.7 8 53.6 12.3 80.4 4.2 29.4 8.8 58.8 12.8 88.3h-50.2zm53.9-81.3c-1.5 1.1-3.2-1.4-1.6-2.4 1.4-1.2 3 1.4 1.6 2.4zm43.4 125.1c1.4.2 1.8 2.6 1 3.7-1.9.7-2.9-3.1-1-3.7zm-2 38.2c1.9-.7 2.7 2.5.8 2.9-1.9.6-2.7-2.4-.8-2.9zm-4.3 12.8c-1.4.4-2.8.8-4.1 1.2 1.3-1.4 2.7-2.8 4.1-4.2v3zm-.8-12.7c-1.3-.7-1.3-1.4 0-2 1.3.7 1.3 1.3 0 2zm.2-44.6c.7-1.2 2.8.1 2 1.3-.8 1.2-2.9-.1-2-1.3zm-1.2 30.2c1.2-.8 2.4 1.2 1.3 2-1.2.9-2.5-1.3-1.3-2zm-.7-7.2c.1 1.4.2 2.9.3 4.4-1 .4-1.9.8-2.8 1.3.8-1.9 1.5-3.8 2.5-5.7zm-10.6-22.3c.4-1.3 2.8-.8 2.4.7-.5 1.2-2.9.7-2.4-.7zm-1.7-37.1c1.3.7 1.3 1.3 0 2-1.4-.7-1.3-1.3 0-2zM908.3 317.6c.5-95 .1-190 .2-285-18 .2-36 .4-54 0-.1 72.3 0 144.6 0 217-7.6.1-15.4-.3-22.9 1-1.4 1.3-2.6 2.8-3.8 4.3.2-1.7.5-3.5.7-5.2h-34c-.1-72.3 0-144.6 0-217-17.7-.1-35.3-.1-53 0 0 111.7-.1 223.3.1 335h6.9c-1-2.8-1.9-5.7-2.7-8.5 2.7 2.4 4.8 5.5 7.3 8.1 8.6 1.2 17.4.2 26.1.3 4.7-8.6 8.4-17.7 13.1-26.3 1.4-2.6 2.2-5.7 2.1-8.6.6-11.6.2-23.3.2-34.9 20-2.1 40 .7 60-.1.1 23.3 0 46.6 0 69.9 18 .1 36 0 54 0 .9-16.7-2.4-33.4-.3-50zM756.8 184.8c1-1.5 3.5.2 2.4 1.6-1.1 1.5-3.6-.2-2.4-1.6zm1.3 142.1c1-2.6 2.6-4.8 4.6-6.7-1.3 2.4-2.8 4.7-4.6 6.7zm7.5 31.8c-1.3-.7-1.3-1.4 0-2 1.3.7 1.3 1.3 0 2zm-1.1-248.5c-1.4-3.3.6-6 3-8.1-.9 2.7-1.9 5.4-3 8.1zm5.6-19.9c-1 1.3-3.2-.3-2.2-1.6s3.3.2 2.2 1.6zm1.5-35.5c1.6-.5 2.2 0 1.7 1.7-1.6.4-2.2-.1-1.7-1.7zm.3 86.6c.9-1.9 2-3.7 3.1-5.4l.6 4.5c-1.3.3-2.5.6-3.7.9zm2.5-84.8l1.5-5.4c.6 1.7 1.2 3.5 1.8 5.3-.8 0-2.4.1-3.3.1zM813.8 295c1.6-8.8 3.3-18.2 9.8-24.8-1.6 8.8-5.1 17.2-9.8 24.8zm9.7-26.7c.7-1.4 1.5-2.7 2.2-4.1l.6 5.4c-.9-.5-1.9-.9-2.8-1.3zm65-213.3c-2.1 2.7-4.9 2.7-7 0h7zM884 188.7c.8.1 2.4.2 3.2.3v4.1c-1.1-1.4-2.2-2.9-3.2-4.4zm2.3 47.3c-1.1-1.8-2.2-3.6-3.2-5.3.8.1 2.3.3 3.1.4 0 1.6 0 3.2.1 4.9zm-4.2-166.3c.8.1 2.3.3 3.1.4 0 1.6.1 3.2.1 4.9-1.1-1.8-2.2-3.6-3.2-5.3zm3.5 27.4c.7 2 1.3 4 1.8 6-.8-2-1.3-4-1.8-6zm-.5 197.7c-.1.8-.3 2.3-.3 3.1-1.7-.8-3.4-1.8-5-2.8 1.8-.2 3.6-.3 5.3-.3zm-.6 59.3c-4.7-1.2-8.6-4-11.4-7.9 2.8-3.4 5.5-7.3 9.7-9.1 5.3-1.9 5.1 6.6 6.5 9.5-2 2.3-3.8 4.7-4.8 7.5zm6.1-248.4c-1.3-.7-1.3-1.4 0-2 1.3.7 1.3 1.3 0 2zm2-19c1.3.7 1.3 1.3 0 2-1.3-.6-1.3-1.3 0-2zm2.8 112.2c-1.6 1.1-3.6-1.5-1.6-2.4 1.5-1.2 3.5 1.4 1.6 2.4zm2.4-89.8c-.8 1.5-3.6.3-2.6-1.3.8-1.5 3.6-.3 2.6 1.3zm2.3 218.4c1.6 1.7 3.2 3.5 4.6 5.4-1.8-1.6-3.3-3.5-4.6-5.4zM2338.1 65c2.3-9.6 1.1-19.7 1.5-29.4h-163c-.1 16-.1 32 0 48h55c-.1 95.7.2 191.3 0 287 17.6.1 35.3.1 53 0v-41c-9.3-4.1-18.2-9.2-27.5-13.3-7.5-2.5-15.8-4.4-21.1-10.7 6.6 1.8 13.1 4.3 19.1 7.6 9.4 5.6 19.7 9.5 29.4 14.5v-244c18.4-.1 36.8 0 55.3-.1-1.1-6.1-3.3-12.4-1.7-18.6zm-114.9-.7c-1.4 1.1-2.9-1.2-1.6-2.2 1.3-1 2.8 1.2 1.6 2.2zm43.6 262.6c1.3-1.1 2.8 1.2 1.6 2.2-1.4 1-3-1.3-1.6-2.2zm-1.9 2.8c1.4-.5 1.8 0 1.4 1.4-1.4.5-1.9 0-1.4-1.4zm-12.2 12.2c1.3-1.1 2.8 1.3 1.4 2.2-1.4 1-2.9-1.3-1.4-2.2zm-3.4-61.5c-1.7.5-2.2 0-1.7-1.7 1.6-.5 2.2.1 1.7 1.7zm.3-107.6c1.6-.5 2.1 0 1.7 1.7-1.7.4-2.2-.1-1.7-1.7zm.3 89.6c.5-2.2 1.1-4.4 1.9-6.5.2 2.4-.5 4.6-1.9 6.5zm3.1-98.9c-1 1.3-3.3-.3-2.1-1.6.8-1.3 3 .3 2.1 1.6zm9.4 120.2c-1.9.6-2.8-2.5-.8-2.9 1.8-.6 2.7 2.5.8 2.9zm1.9 28.8l.8-2.4 2.4-.8v3.2c-.8.1-2.4.1-3.2 0zm7.6 2.8c-.9 1.1-2.9-.3-1.9-1.5.8-1.1 2.8.4 1.9 1.5zm9.7-258.6c-1.3-.7-1.3-1.4 0-2 1.3.7 1.3 1.3 0 2zm50-8.9c1.6-.5 2.1 0 1.7 1.7-1.7.4-2.2-.1-1.7-1.7zm-29.3 8.6c-1.7.5-2.2 0-1.7-1.7 1.6-.5 2.2.1 1.7 1.7zm10.3 7.3c-1.3-.7-1.3-1.4 0-2 1.3.7 1.3 1.3 0 2zm15.2-22.6c.7-1.2 2.8.1 2 1.3-.8 1.2-2.9-.1-2-1.3zm10.1 9.7c.2 1.4.4 2.8.7 4.3-3.5-.7-6.4-1.3-9.6-2.3 2.9-.7 5.9-1.4 8.9-2zm-1.3 5.1c2.1-.3 1.7 3-.2 2.9-2.2.2-1.7-3 .2-2.9zM450.6 51c-.8 4 4-.8 0 0m-36 41c-.8 4 4-.8 0 0m92 20c-.8 4 4-.8 0 0m13 55.1c-2.3 3.5 3.9.8 0 0m-2 33.9c-.8 4 4-.8 0 0m-113 54c-.8 4 4-.8 0 0m20 6.8c-.9 3.9 4-1 0 0m-19 24.2c-.8 4 4-.8 0 0m1649-222c-.9 4 4-.8 0 0m-21 85.8c-.9 3.9 4-1 0 0m-4 20c-.9 3.9 4-1 0 0m-6 7.2c-.9 4 4-.8 0 0m1 48.8c-.9 3.9 4-1 0 0m5 16c-.9 3.9 4-1 0 0m11 63c-.9 3.9 4-1 0 0m-23 5.2c-.9 4 4-.8 0 0m97 31.8c-.9 3.9 4-1 0 0m-42 1.3c-2.3 3.4 3.9.8 0 0m464-281.1c-.9 4 4-.8 0 0m-69 35c-.9 4 4-.8 0 0m117 23c-.9 4 4-.8 0 0m-16 4c-.9 4 4-.8 0 0m-91 44c-.9 4 4-.8 0 0m95 3c-.9 4 4-.8 0 0m8 106.8c-.9 3.9 4-1 0 0m-53 85.2c-.9 4 4-.8 0 0M57.6 154.8c-.9 3.9 4-1 0 0m88 168.2c-.8 4 4-.8 0 0m195-258.9c-2.3 3.5 3.9.8 0 0m-80 39.9c-.8 4 4-.8 0 0m-6 28.8c-.9 3.9 4-1 0 0m73 116c-.9 3.9 4-1 0 0M640.6 55c-.8 4 4-.8 0 0m-47 9.1c-2.3 3.5 3.9.8 0 0m32-.3c-.9 3.9 4-1 0 0m-18 7.2c-.8 4 4-.8 0 0m82 23c-.8 4 4-.8 0 0m-85 69.8c-.9 3.9 4-1 0 0m152-37.8c-.8 4 4-.8 0 0m3 53c-.8 4 4-.8 0 0m113 113c-.8 4 4-.8 0 0m0 4.8c-.9 3.9 4-1 0 0m307-247.8c-.8 4 4-.8 0 0m-227 24.1c-2.3 3.5 3.9.8 0 0m114 6.9c-.8 4 4-.8 0 0m-100 51.8c-.9 3.9 4-1 0 0m23 61.3c-2.3 3.5 3.9.8 0 0m27 45.9c-.8 4 4-.8 0 0m-3 109c-.8 4 4-.8 0 0m297-215.2c-.9 3.9 4-1 0 0m3 194c-.9 3.9 4-1 0 0m46 13c-.9 3.9 4-1 0 0m8 .2c-.8 4 4-.8 0 0m494-214c-.9 4 4-.8 0 0m64 53.8c-.9 3.9 4-1 0 0m19 77c-.9 3.9 4-1 0 0m0 5c-.9 3.9 4-1 0 0m-86 8.2c-.9 4 4-.8 0 0m88 16.8c-.9 3.9 4-1 0 0m-49 4.2c-.9 4 4-.8 0 0m18 2c-.9 4 4-.8 0 0m-88 23c-.9 4 4-.8 0 0m2 9.8c-.9 3.9 4-1 0 0m502-281.8c-.9 4 4-.8 0 0m-80 149.8c-.9 3.9 4-1 0 0m-8 44.3c-2.3 3.5 3.9.8 0 0m153-160.1c-.9 4 4-.8 0 0m-9 47.8c-.9 3.9 4-1 0 0m11 52.2c-.9 4 4-.8 0 0m381-130c-.9 4 4-.8 0 0m11 30c-.9 4 4-.8 0 0m-134 6.1c-2.3 3.5 3.9.8 0 0m126 12.9c-.9 4 4-.8 0 0m-79 5.8c-.9 3.9 4-1 0 0m-8 1.2c-.9 4 4-.8 0 0m4 9.8c-.9 3.9 4-1 0 0m77 12.2c-.9 4 4-.8 0 0m-107 23c-.9 4 4-.8 0 0m109 32.8c-.9 3.9 4-1 0 0m-53 8.2c-.9 4 4-.8 0 0m49 15.1c-2.3 3.5 3.9.8 0 0m-116 19.9c-.9 4 4-.8 0 0m85 53c-.9 4 4-.8 0 0m4 39c-.9 4 4-.8 0 0"/></symbol><symbol id="inline-vk-logo" viewBox="0 0 26.14 14.91"><path d="M26 13.47l-.09-.17a13.55 13.55 0 0 0-2.6-3q-.87-.83-1.1-1.12A1 1 0 0 1 22 8a10.27 10.27 0 0 1 1.22-1.78l.88-1.16q2.35-3.13 2-4L26 .94a.8.8 0 0 0-.4-.22 2.14 2.14 0 0 0-.87 0h-3.92a.51.51 0 0 0-.27 0h-.3a.6.6 0 0 0-.15.14.93.93 0 0 0-.14.24 22.22 22.22 0 0 1-1.46 3.06q-.5.84-.93 1.46a7 7 0 0 1-.71.91 4.94 4.94 0 0 1-.52.47q-.23.18-.35.15l-.23-.05a.9.9 0 0 1-.31-.33 1.49 1.49 0 0 1-.16-.53V1.6a3.14 3.14 0 0 0 0-.62 2.12 2.12 0 0 0-.14-.44.73.73 0 0 0-.28-.33 1.57 1.57 0 0 0-.46-.18A9 9 0 0 0 12.57 0a8.93 8.93 0 0 0-3.25.33 1.83 1.83 0 0 0-.52.41q-.25.3-.07.33a1.67 1.67 0 0 1 1.16.59l.08.16a2.6 2.6 0 0 1 .19.63 6.32 6.32 0 0 1 .12 1 10.59 10.59 0 0 1 0 1.7q-.07.71-.13 1.1a2.21 2.21 0 0 1-.18.64 2.69 2.69 0 0 1-.16.3l-.07.07a1 1 0 0 1-.37.07.86.86 0 0 1-.46-.19 3.27 3.27 0 0 1-.56-.52 7 7 0 0 1-.66-.93q-.37-.6-.76-1.42l-.22-.39q-.2-.38-.56-1.11t-.62-1.43A.9.9 0 0 0 5.2.9h-.07a.93.93 0 0 0-.22-.16A1.44 1.44 0 0 0 4.6.65L.87.68A1 1 0 0 0 .1.94L0 1a.44.44 0 0 0 0 .22 1.08 1.08 0 0 0 .08.37Q.9 3.53 1.86 5.31t1.66 2.87Q4.23 9.27 5 10.24t1 1.24l.37.41.34.33a8.06 8.06 0 0 0 1 .78 16.34 16.34 0 0 0 1.4.9 7.6 7.6 0 0 0 1.79.72 6.19 6.19 0 0 0 2 .22h1.57a1.08 1.08 0 0 0 .72-.3l.05-.07a.9.9 0 0 0 .1-.25 1.38 1.38 0 0 0 0-.37 4.48 4.48 0 0 1 .09-1.05 2.77 2.77 0 0 1 .23-.71 1.74 1.74 0 0 1 .29-.4 1.19 1.19 0 0 1 .23-.2h.11a.86.86 0 0 1 .77.21 4.52 4.52 0 0 1 .83.79q.39.47.93 1.05a6.41 6.41 0 0 0 1 .87l.27.16a3.31 3.31 0 0 0 .71.3 1.53 1.53 0 0 0 .76.07l3.48-.05a1.58 1.58 0 0 0 .8-.17.68.68 0 0 0 .34-.37 1.06 1.06 0 0 0 0-.46 1.71 1.71 0 0 0-.1-.36z"/></symbol><symbol id="inline-youtube-logo" viewBox="0 0 25 25"><path d="M19.615 3.184c-3.604-.246-11.631-.245-15.23 0C.488 3.45.029 5.804 0 12c.029 6.185.484 8.549 4.385 8.816 3.6.245 11.626.246 15.23 0C23.512 20.55 23.971 18.196 24 12c-.029-6.185-.484-8.549-4.385-8.816zM9 16V8l8 3.993L9 16z"/></symbol></svg>